<?xml version="1.0" encoding="UTF-8" standalone="no"?>
<!-- Created with Inkscape (http://www.inkscape.org/) -->

<svg
   id="svg2"
   viewBox="0 0 511.99995 511.99997"
   version="1.1"
   width="511.99994"
   height="511.99994"
   xmlns:xlink="http://www.w3.org/1999/xlink"
   xmlns="http://www.w3.org/2000/svg"
   xmlns:svg="http://www.w3.org/2000/svg"
   xmlns:rdf="http://www.w3.org/1999/02/22-rdf-syntax-ns#"
   xmlns:cc="http://creativecommons.org/ns#"
   xmlns:dc="http://purl.org/dc/elements/1.1/">
  <defs
     id="defs4">
    <filter
       id="filter4184"
       color-interpolation-filters="sRGB"
       x="-0.025637174"
       y="-0.06033089"
       width="1.0512743"
       height="1.1206619">
      <feGaussianBlur
         id="feGaussianBlur4186"
         stdDeviation="1.0373252" />
    </filter>
    <filter
       id="filter4210"
       color-interpolation-filters="sRGB"
       x="-0.042616241"
       y="-0.085423194"
       width="1.0852325"
       height="1.1708463">
      <feGaussianBlur
         id="feGaussianBlur4212"
         stdDeviation="1.8857158" />
    </filter>
    <filter
       id="filter4261"
       height="1.2870049"
       width="1.1116713"
       color-interpolation-filters="sRGB"
       y="-0.14350249"
       x="-0.055835649">
      <feGaussianBlur
         id="feGaussianBlur4263"
         stdDeviation="1.6347286" />
    </filter>
    <filter
       id="filter4331"
       height="1.7089587"
       width="1.2412518"
       color-interpolation-filters="sRGB"
       y="-0.3544794"
       x="-0.12062588">
      <feGaussianBlur
         id="feGaussianBlur4333"
         stdDeviation="1.918981" />
    </filter>
    <filter
       id="filter5968"
       height="1.8567972"
       width="1.2677507"
       color-interpolation-filters="sRGB"
       y="-0.42839858"
       x="-0.13387536">
      <feGaussianBlur
         id="feGaussianBlur5970"
         stdDeviation="1.3523419" />
    </filter>
    <filter
       id="filter6014"
       height="1.3650792"
       width="1.13025"
       color-interpolation-filters="sRGB"
       y="-0.1825396"
       x="-0.065124981">
      <feGaussianBlur
         id="feGaussianBlur6016"
         stdDeviation="0.98679277" />
    </filter>
    <filter
       id="filter6032"
       height="1.2743325"
       width="1.0581799"
       color-interpolation-filters="sRGB"
       y="-0.13716625"
       x="-0.029089911">
      <feGaussianBlur
         id="feGaussianBlur6034"
         stdDeviation="0.69736748" />
    </filter>
    <filter
       id="filter6074"
       height="1.6959782"
       width="1.0656602"
       color-interpolation-filters="sRGB"
       y="-0.34798911"
       x="-0.032830112">
      <feGaussianBlur
         id="feGaussianBlur6076"
         stdDeviation="0.36618025" />
    </filter>
    <filter
       id="filter6192"
       height="1.5990368"
       width="1.5546604"
       color-interpolation-filters="sRGB"
       y="-0.29951841"
       x="-0.27733022">
      <feGaussianBlur
         id="feGaussianBlur6194"
         stdDeviation="0.7879194" />
    </filter>
    <filter
       id="filter6242"
       height="1.2108504"
       width="1.1762438"
       color-interpolation-filters="sRGB"
       y="-0.10542516"
       x="-0.088121906">
      <feGaussianBlur
         id="feGaussianBlur6244"
         stdDeviation="1.8310201" />
    </filter>
    <filter
       id="filter6268"
       height="1.6401726"
       width="1.0811231"
       color-interpolation-filters="sRGB"
       y="-0.3200863"
       x="-0.040561564">
      <feGaussianBlur
         id="feGaussianBlur6270"
         stdDeviation="1.5493216" />
    </filter>
    <filter
       id="filter6354"
       height="1.9359951"
       width="1.2228572"
       color-interpolation-filters="sRGB"
       y="-0.46799755"
       x="-0.1114286">
      <feGaussianBlur
         id="feGaussianBlur6356"
         stdDeviation="0.98489887" />
    </filter>
    <linearGradient
       id="linearGradient11195"
       y2="460.25"
       gradientUnits="userSpaceOnUse"
       x2="-652.09003"
       gradientTransform="translate(89.602,-96.747)"
       y1="502.75"
       x1="-788.47998">
      <stop
         id="stop4166"
         style="stop-color:#57646d"
         offset="0" />
      <stop
         id="stop4168"
         style="stop-color:#57646d;stop-opacity:0"
         offset="1" />
    </linearGradient>
    <linearGradient
       id="linearGradient11197"
       y2="226.34"
       gradientUnits="userSpaceOnUse"
       x2="-1066.5"
       gradientTransform="translate(401.03,131.82)"
       y1="282.48999"
       x1="-1055.3">
      <stop
         id="stop5874"
         style="stop-color:#ccc"
         offset="0" />
      <stop
         id="stop5876"
         style="stop-color:gray"
         offset="1" />
    </linearGradient>
    <linearGradient
       id="linearGradient11687"
       y2="1460"
       gradientUnits="userSpaceOnUse"
       y1="1365.3"
       x2="-506.79001"
       x1="-519.81">
      <stop
         id="stop11913"
         style="stop-color:red"
         offset="0" />
      <stop
         id="stop11915"
         style="stop-color:#a00"
         offset="1" />
    </linearGradient>
    <radialGradient
       id="radialGradient11689"
       gradientUnits="userSpaceOnUse"
       cy="1419.6"
       cx="-514.90002"
       gradientTransform="matrix(1,0,0,0.92466,0,106.37)"
       r="54.837002">
      <stop
         id="stop11923"
         style="stop-color:white"
         offset="0" />
      <stop
         id="stop11921"
         style="stop-color:#f2f2f2"
         offset="1" />
    </radialGradient>
    <linearGradient
       xlink:href="#linearGradient11687"
       id="linearGradient3929"
       gradientUnits="userSpaceOnUse"
       x1="-519.81"
       y1="1365.3"
       x2="-506.79001"
       y2="1460" />
    <radialGradient
       xlink:href="#radialGradient11689"
       id="radialGradient3931"
       gradientUnits="userSpaceOnUse"
       gradientTransform="matrix(1,0,0,0.92466,0,106.37)"
       cx="-514.90002"
       cy="1419.6"
       r="54.837002" />
    <linearGradient
       xlink:href="#linearGradient11195"
       id="linearGradient3933"
       gradientUnits="userSpaceOnUse"
       gradientTransform="translate(89.602,-96.747)"
       x1="-788.47998"
       y1="502.75"
       x2="-652.09003"
       y2="460.25" />
    <linearGradient
       xlink:href="#linearGradient11197"
       id="linearGradient3935"
       gradientUnits="userSpaceOnUse"
       gradientTransform="translate(401.03,131.82)"
       x1="-1055.3"
       y1="282.48999"
       x2="-1066.5"
       y2="226.34" />
  </defs>
  <g
     id="layer1"
     transform="translate(-1044.6884,-2754.3895)">
    <g
       id="fog"
       transform="matrix(4.654545,0,0,4.654545,41.820055,48.795486)">
      <rect
         id="rect6158"
         style="color:#000000;opacity:0;stroke-width:6.8"
         height="110"
         width="110"
         y="581.28003"
         x="215.46001" />
      <g
         id="g6205"
         transform="translate(-34.949,-16.64)">
        <g
           id="g11933"
           transform="matrix(0.14572,0.037093,-0.037093,0.14572,309.61,416.72)">
          <path
             id="path11905"
             style="color:#000000;fill:#ececec"
             d="m -463.51148,1458.5084 c -5.36541,8.227 -104.5299,2.8367 -108.97196,-5.9233 -4.44206,-8.7601 49.80827,-91.944 59.61575,-91.4109 9.80748,0.5331 54.72163,89.1072 49.35621,97.3342 z"
             transform="matrix(3.7775,-0.18465,0.18465,3.7775,2137.3,-3943)" />
          <path
             id="path11907"
             style="color:#000000;fill:url(#linearGradient3929)"
             transform="matrix(3.6304,-0.17745,0.17745,3.6304,2071.6,-3729.4)"
             d="m -463.51148,1458.5084 c -5.36541,8.227 -104.5299,2.8367 -108.97196,-5.9233 -4.44206,-8.7601 49.80827,-91.944 59.61575,-91.4109 9.80748,0.5331 54.72163,89.1072 49.35621,97.3342 z" />
          <path
             id="path11909"
             style="color:#000000;fill:url(#radialGradient3931)"
             d="m -463.51148,1458.5084 c -5.36541,8.227 -104.5299,2.8367 -108.97196,-5.9233 -4.44206,-8.7601 49.80827,-91.944 59.61575,-91.4109 9.80748,0.5331 54.72163,89.1072 49.35621,97.3342 z"
             transform="matrix(2.659,-0.12998,0.12998,2.659,1637.4,-2319.3)" />
          <text
             id="text11929"
             style="line-height:0%;font-family:Jomolhari;letter-spacing:0px;word-spacing:0px;fill:#000000"
             transform="matrix(0.9992,0.039895,-0.039895,0.9992,0,0)"
             xml:space="preserve"
             y="1587.6368"
             x="452.03351">             <tspan
   id="tspan11931"
   y="1587.6368"
   x="452.03351"
   style="font-size:268.69px;line-height:1.25">!</tspan>           </text>
        </g>
        <g
           id="g9908"
           style="opacity:0.7"
           transform="matrix(0.66345,0,0,0.66345,729.73,404.39)">
          <path
             id="path9910"
             d="m -639.68,410.16 c 2.6764,3.5854 8.7026,3.4097 13.132,2.7779 2.6472,-0.37756 4.6511,-2.6507 7.0711,-3.7881 2.2212,-1.0439 4.4171,-2.2718 6.8185,-2.7779 5.7682,-1.2157 17.678,-0.50508 17.678,-0.50508 0,0 -15.248,3.6421 -15.405,-1.5152 -0.0646,-2.1303 4.208,-0.67975 6.3135,-1.0102 2.1876,-0.34329 6.0609,3.0305 6.566,-1.0102 0.50508,-4.0406 -0.75762,-3.5355 0.75761,-4.0406 1.5152,-0.50508 3.7881,-1.7678 3.7881,-1.7678 0,0 -3.9471,-3.1639 -6.0609,-4.5457 -1.8615,-1.2169 -5.1589,-1.156 -5.8084,-3.283 -0.60466,-1.9803 1.2137,-4.1992 2.7779,-5.5558 1.2066,-1.0465 5.0508,-0.50508 4.5457,-1.5152 -0.50508,-1.0102 -2.0183,-3.3698 -3.5355,-4.5457 -2.1754,-1.686 -4.9766,-2.3788 -7.5761,-3.283 -2.4686,-0.85868 -4.9847,-1.6807 -7.5761,-2.0203 -2.0032,-0.2625 -4.0415,-0.0593 -6.0609,0 -2.8658,0.0842 -5.9709,-0.66942 -8.5863,0.50508 -2.715,1.2192 -5.0657,3.6114 -6.3134,6.3134 -4.4256,9.5835 -8.84,23.108 -2.5254,31.567 z"
             style="opacity:0.85;fill:#76797e;filter:url(#filter6242)" />
          <path
             id="path9912"
             d="m -656.47,379.9 c 2.21,-2.6523 5.5109,-4.3211 7.5,-7.1429 0.6755,-0.95833 0.7396,-2.2656 1.4286,-3.2143 0.9411,-1.2959 2.0155,-3.5944 3.5714,-3.2143 1.9762,0.48278 0.6022,4.3859 2.1429,5.7143 1.2909,1.1131 3.3026,1.2278 5,1.0714 1.541,-0.14195 3.4997,-0.45251 4.2857,-1.7857 0.5474,-0.92867 -0.7925,-2.2281 -0.3572,-3.2143 0.3269,-0.74068 -2.8201,-1.5349 1.9643,-1.4286 1.7176,0.0382 4.6119,1.4198 6.9643,1.25 2.0652,-0.14911 7.7666,-1.6924 5.8929,-1.9643 1.5471,2.9435 -4.4853,4.9264 -6.9643,7.1429 -1.0119,0.90472 -3.5474,1.1842 -3.2143,2.5 0.3554,1.404 2.8431,0.84293 4.2857,0.71429 1.7628,-0.15719 3.4185,-0.9913 5,-1.7857 1.5342,-0.7707 2.5967,-2.5487 4.2857,-2.8571 1.5625,-0.28529 3.0801,0.78759 4.6429,1.0714 1.7725,0.32195 3.8163,1.6478 5.3571,0.71428 1.1917,-0.72206 1.9161,-2.6232 1.4286,-3.9286 -0.4289,-1.1482 -2.351,-0.91568 -3.2143,-1.7857 -1.0507,-1.0588 -3.0023,-2.7094 -2.1429,-3.9286 1.3194,-1.8717 4.4964,1.0188 6.7858,1.0714 1.0777,0.0248 2.153,-0.54643 3.2142,-0.35715 0.26207,0.0467 0.63986,0.10156 0.71429,0.35715 0.38815,1.333 -2.0169,2.1888 -2.1428,3.5714 -0.1845,2.0259 2.7673,3.7782 2.1428,5.7143 -0.52705,1.634 -2.6995,2.2001 -4.2857,2.8571 -1.6825,0.6969 -3.606,0.57152 -5.3571,1.0714 -2.9342,0.83766 -5.7744,1.9946 -8.5715,3.2143 -0.976,0.42562 -2.9792,0.3708 -2.8571,1.4286 0.2948,2.5529 4.9341,1.9293 7.5,1.7857 3.1582,-0.17675 5.7656,-3.1766 8.9286,-3.2143 1.5057,-0.0179 2.9285,0.77625 4.2857,1.4286 2.1726,1.0442 3.6935,3.5334 6.0714,3.9286 2.421,0.4023 4.707,-1.4858 7.1429,-1.7857 1.7723,-0.21818 3.8975,-1.0287 5.3571,0 1.4466,1.0195 2.6962,3.4824 1.7857,5 -1.6716,2.7864 -6.3936,1.4003 -9.6429,1.4286 -2.7612,0.024 -7.3499,-3.6939 -8.2143,-1.0714 -0.76739,2.3281 4.1094,2.7774 6.4286,3.5714 2.9628,1.0144 6.1652,1.693 9.2857,1.4286 1.5005,-0.12717 2.8471,-0.98352 4.2857,-1.4286 0.82796,-0.25614 1.8934,-1.3333 2.5,-0.71429 1.1333,1.1565 -0.3258,3.4572 -1.4286,4.6429 -1.5659,1.6835 -4.1688,2.0761 -6.4286,2.5 -1.8721,0.35121 -3.8214,0.21239 -5.7143,0 -2.6691,-0.29949 -5.1881,-1.4862 -7.8572,-1.7857 -1.7746,-0.19912 -3.5793,-0.16781 -5.3571,0 -2.5337,0.23915 -5.0374,0.78666 -7.5,1.4286 -2.1858,0.56973 -4.199,1.781 -6.4286,2.1428 -1.6452,0.26697 -4.1047,1.4058 -5,0 -1.0586,-1.6621 3.4532,-3.6324 2.5,-5.3571 -1.3928,-2.5201 -5.7334,-1.5576 -8.5714,-1.0714 -2.6238,0.44943 -5.0801,1.8888 -7.1429,3.5714 -1.6425,1.3398 -1.9288,4.2976 -3.9286,5 -3.4601,1.2154 -7.095,-1.9082 -10.714,-2.5 -7.4352,-1.2158 -19.236,4.6471 -22.5,-2.1429 -3.3908,-7.0528 7.8477,-13.631 12.857,-19.643 z"
             style="opacity:0.85;fill:url(#linearGradient3933);filter:url(#filter4184)" />
          <path
             id="path9914"
             d="m -650.54,388.69 7.5761,1.5152 6.0609,2.0203 6.0609,0.50508 5.0508,-0.50508 c 0,0 0.50507,-1.0102 2.5254,-1.5152 2.0203,-0.50508 1.0102,-0.50508 3.0305,-1.0102 2.0203,-0.50507 4.5457,-1.5152 4.5457,-1.5152 l 1.5152,-1.0102 c 0,0 0,-1.0102 -2.5254,-1.5152 -2.5254,-0.50507 -3.5355,-5.0508 -3.5355,-5.0508 0,0 -3.0305,-1.5152 -5.5558,-0.50508 -2.5254,1.0102 -5.0508,3.0305 -8.0812,3.5355 -3.0305,0.50507 -9.0914,-1.0102 -9.0914,-1.0102 l -4.5457,3.0305 z"
             style="opacity:0.9;fill:#999999;filter:url(#filter6014)" />
          <path
             id="path9916"
             d="m -685.14,400.81 5.3033,-2.0203 4.2931,1.7678 c 0,0 1.0102,-1.5152 2.2728,-1.7678 1.2627,-0.25254 3.7881,1.2627 4.7982,1.2627 1.0102,0 -5.5558,0 3.0305,0.50507 8.5863,0.50508 8.3338,1.5152 8.0812,0.25254 -0.25254,-1.2627 -3.283,-4.0406 0.75761,-3.283 4.0406,0.75762 4.0406,0.75762 4.0406,0.75762 l 6.0609,-1.5152 6.8185,3.283 3.0305,0.25253 c 0,0 4.5457,0.75762 5.8084,1.5152 1.2627,0.75762 5.8084,0.50508 1.2627,0.75762 -4.5457,0.25254 -3.7881,-1.7678 -6.3135,0.75761 -2.5254,2.52541 -5.3033,3.7881 -6.566,3.7881 -1.2627,0 -4.0406,-0.75761 -6.3134,-0.75761 -2.2728,0 -4.0406,-0.50508 -5.0508,0.25254 -1.0102,0.75761 -1.7678,2.7779 -3.7881,2.2728 -2.0203,-0.50508 -7.5761,-2.0203 -7.5761,-2.0203 h -2.5254 l -4.5457,-1.0102 c 0,0 -0.25254,-1.2627 -1.5152,-1.7678 -1.2627,-0.50508 -4.5457,-0.75762 -4.5457,-0.75762 l -3.0305,-0.25254 z"
             style="opacity:0.8;fill:#666666;filter:url(#filter6032)" />
          <path
             id="path9918"
             d="m -640.69,388.19 14.395,1.5152 c 0,0 5.3033,-2.7779 6.0609,-2.5254 0.75762,0.25254 5.0508,1.5152 5.0508,1.5152 0,0 5.5558,-0.25254 6.8185,-0.50507 1.2627,-0.25254 10.102,-1.2627 10.102,-1.2627 0,0 6.566,3.5355 7.5762,3.5355 1.0102,0 13.385,1.2627 13.385,1.2627 l 16.162,2.5254 -15.405,2.0203 -16.415,-0.50508 -8.5863,-0.25254 -18.183,3.0305 -12.122,-1.7678 -20.961,1.7678 z"
             style="opacity:0.8;fill:#cccccc;filter:url(#filter6268)" />
          <path
             id="path9920"
             d="m -662.15,399.8 c 2.2641,3.1413 7.8197,0.75941 11.617,0 2.1462,-0.42923 3.8748,-2.42 6.0609,-2.5254 2.2873,-0.11021 4.2874,1.793 6.566,2.0203 1.6836,0.16793 3.4073,-0.10274 5.0508,-0.50507 2.6419,-0.64676 4.9053,-2.5161 7.5761,-3.0305 2.4798,-0.47757 5.0508,0 7.5762,0 1.852,0 3.7305,0.31267 5.5558,0 2.9916,-0.51243 5.5947,-2.518 8.5863,-3.0305 1.9913,-0.3411 4.8443,1.6129 6.0609,0 0.73809,-0.97851 5.3789,-0.90991 4.347,-1.5712 -1.8644,-1.1948 -9.8186,-0.26518 -11.923,-0.95414 -1.3577,-0.44446 -10.389,0.50555 -5.709,-3.3876 -1.0863,-6.283 -7.7879,6.0157 -13.484,5.913 -2.3446,-0.0423 -6.5876,-0.18051 -6.566,-2.5254 0.0181,-1.9705 4.3463,-0.46457 5.5558,-2.0203 1.0385,-1.3358 1.5873,-3.7501 0.50508,-5.0508 -1.2967,-1.5584 -4.0728,-0.10813 -6.0609,-0.50507 -4.8557,-0.9695 -9.9161,-1.9652 -14.142,-4.5457 -1.6256,-0.99267 -2.1361,-4.0734 -4.0406,-4.0406 -3.4539,0.0595 -5.3059,4.6068 -7.0711,7.5762 -3.2646,5.4917 -9.7965,13 -6.0609,18.183 z"
             style="opacity:0.8;fill:#999999;filter:url(#filter4261)" />
          <path
             id="path9922"
             d="m -642.91,363.82 c -3.9645,0.006 -4.9561,7.5384 -8.9063,7.875 -1.8107,0.15428 -2.847,-2.7054 -4.6562,-2.875 -6.9781,-0.65407 -12.715,6.5289 -19.656,7.5 -2.722,0.3808 -5.492,-1.255 -8.1876,-0.71875 -3.29,0.65457 -11.877,0.68339 -11.08,3.942 0.5654,2.3128 8.5616,-1.5595 9.2679,0.71429 0.6857,2.2075 -4.3947,2.0214 -5.6876,3.9375 -0.614,0.90981 0.1471,2.513 -0.7187,3.1875 -3.2885,2.5616 -6.2101,1.1992 -10.357,1.6205 -4.1369,0.42035 -14.185,-3.2771 -14.299,0.87946 -0.0579,2.1087 4.1306,0.96537 6.0626,1.8125 1.2714,0.55752 2.612,1.1433 3.5937,2.125 0.4908,0.49084 0.4481,1.4582 1.0625,1.7812 3.3786,1.776 7.6303,-0.99139 11.438,-0.71875 2.911,0.20846 5.7939,0.88927 8.5625,1.8125 3.9912,1.3309 7.4409,4.0288 11.438,5.3438 1.7298,0.56916 4.303,-0.43181 5.3437,1.0625 1.3089,1.879 -2.7901,5.2782 -1.0624,6.7812 2.1593,1.8786 5.3877,-2.0788 8.2187,-2.5 2.7082,-0.403 5.5049,-0.36344 8.2187,0 2.6906,0.36033 5.3193,1.158 7.8438,2.1562 2.1295,0.84209 3.9461,2.3445 6.0625,3.2188 4.1419,1.7109 8.4478,4.6321 12.875,3.9375 3.2951,-0.517 29.652,-8.1416 8.2187,-5.7188 -0.6221,-3.7922 -2.6617,0.81505 -11.094,-3.2188 -2.0432,-0.97748 -5.5057,1.4967 -6.7813,-0.375 -1.06,-1.5554 0.49,-3.9742 1.7813,-5.3438 1.3194,-1.3993 4.8254,-0.31317 5.375,-2.1562 0.4152,-1.3926 -1.5166,-2.4927 -2.5,-3.5625 -1.2586,-1.369 -2.4279,-3.4111 -4.2813,-3.5625 -2.3402,-0.19117 -4.0509,2.4049 -6.0937,3.5625 -1.2978,0.73539 -2.4354,1.9082 -3.9063,2.1562 -2.1422,0.36132 -4.9901,0.52636 -6.4374,-1.0938 -1.509,-1.6892 0.0876,-4.564 -0.375,-6.7812 -0.2078,-0.9957 -1.5492,-1.9506 -1.0626,-2.8438 1.341,-2.4604 5.5001,-1.103 8.2188,-1.7812 4.6805,-1.1677 9.319,-2.5444 13.938,-3.9375 3.3521,-1.0111 3.9406,-1.9856 10,-3.2188 0.9225,-1.5701 11.124,-2.7093 9.6206,-3.7366 -1.6968,-1.1593 -14.759,-0.93495 -16.777,-0.54464 -2.2693,0.43901 -4.5049,1.0357 -6.7812,1.4375 -2.4869,0.43893 -5.677,2.8101 -7.5,1.0625 -1.7273,-1.6559 -0.2487,-4.9677 0.7188,-7.1562 1.99,-1.8685 14.251,1.7996 0.3437,-6.0625 z m -43.562,28.406 3.9375,0.53125 4.8125,1.7812 2.8438,0.90625 2.3437,1.0625 -0.9063,0.875 -2.3124,-0.53125 -3.4063,-0.875 -2.6563,-1.625 -3.5937,-1.5938 z"
             style="opacity:0.95;fill:url(#linearGradient3935);filter:url(#filter4210)" />
          <path
             id="path9924"
             d="m -668.72,407.88 c 2.8188,0.73042 4.7967,0.0874 7.0711,0 2.2744,-0.0874 4.4615,-0.33645 6.566,-0.50508 2.1045,-0.16863 3.9415,-0.0957 6.0609,-0.50507 2.1194,-0.40941 5.0286,-0.83855 6.566,-2.0203 1.5374,-1.18175 3.4926,-2.0257 2.5254,-4.0406 -0.96723,-2.0149 -6.3902,-0.30158 -8.5863,-1.0102 -2.1961,-0.70857 -2.695,-1.7368 -4.5457,-2.5254 -1.8506,-0.78855 -4.5653,-2.2297 -6.566,-2.0203 -2.0007,0.20943 -3.0119,1.4376 -4.5457,2.5254 -1.5338,1.0877 -2.2267,3.0088 -4.5457,4.0406 -2.319,1.0318 -8.4498,-2.184 -9.0914,1.0102 -0.64156,3.1941 6.2726,4.3203 9.0914,5.0508 z"
             style="opacity:0.9;fill:#999999;filter:url(#filter4331)" />
          <path
             id="path9926"
             d="m -615.18,382.63 6.0609,2.5254 4.0406,-2.5254 4.0406,1.0102 5.5558,2.5254 4.5457,1.5152 c 0,0 -1.5152,1.0102 -3.5355,0.50507 -2.0203,-0.50507 -6.566,-1.0102 -6.566,-1.0102 l -6.566,3.0305 -4.0406,-1.0102 -3.5355,-2.0203 z"
             style="opacity:0.9;fill:#a6a7a7;filter:url(#filter5968)" />
          <path
             id="path9928"
             d="m -642.71,398.04 7.0711,-0.50508 5.0508,1.0102 7.5761,-0.25253 7.0711,-1.0102 -6.0609,-0.75761 c 0,0 -3.7881,0.25254 -5.3033,0.50508 -1.5152,0.25253 -5.5558,-1.0102 -6.8185,-1.0102 h -3.7881 c -1.7678,0 -4.7982,2.0203 -4.7982,2.0203 z"
             style="opacity:0.5;fill:#b3b3b3;filter:url(#filter6074)" />
          <path
             id="path9930"
             d="m -639.43,371.52 2.5254,-1.5152 0.75761,-2.2728 2.5254,0.75762 1.0102,0.50507 v 3.0305 h -2.0203 l -2.7779,2.0203 z"
             style="opacity:0.67278;fill:#9c9ea0;filter:url(#filter6192)" />
          <path
             id="path9932"
             style="opacity:0.5;fill:#959798;filter:url(#filter6074)"
             d="m -616.19,395.51 7.0711,-0.50508 5.0508,1.0102 7.5761,-0.25253 7.0711,-1.0102 -6.0609,-0.75761 c 0,0 -3.7881,0.25254 -5.3033,0.50508 -1.5152,0.25253 -5.5558,-1.0102 -6.8185,-1.0102 h -3.7881 c -1.7678,0 -4.7982,2.0203 -4.7982,2.0203 z" />
          <path
             id="path9934"
             d="m -623.77,375.05 7.0711,-0.50508 5.0508,1.0102 7.5761,-0.25253 7.0711,-1.0102 -6.0609,-0.75761 c 0,0 -3.7881,0.25254 -5.3033,0.50508 -1.5152,0.25253 -5.5558,-1.0102 -6.8185,-1.0102 h -3.7881 c -1.7678,0 -4.7982,2.0203 -4.7982,2.0203 z"
             style="opacity:0.5;fill:#959798;filter:url(#filter6074)" />
          <path
             id="path9936"
             style="opacity:0.5;fill:#b3b3b3;filter:url(#filter6074)"
             d="m -645.49,407.38 7.0711,-0.50508 5.0508,1.0102 7.5761,-0.25253 7.0711,-1.0102 -6.0609,-0.75761 c 0,0 -3.7881,0.25254 -5.3033,0.50508 -1.5152,0.25253 -5.5558,-1.0102 -6.8185,-1.0102 h -3.7881 c -1.7678,0 -4.7982,2.0203 -4.7982,2.0203 z" />
          <path
             id="path9938"
             d="m -704.58,397.53 7.0711,-0.50508 5.0508,1.0102 7.5761,-0.25253 7.0711,-1.0102 -6.0609,-0.75761 c 0,0 -3.7881,0.25254 -5.3033,0.50508 -1.5152,0.25253 -5.5558,-1.0102 -6.8185,-1.0102 h -3.7881 c -1.7678,0 -4.7982,2.0203 -4.7982,2.0203 z"
             style="opacity:0.5;fill:#959798;filter:url(#filter6074)" />
          <path
             id="path9940"
             d="m -676.04,385.66 4.0406,-2.5254 2.7779,0.25254 4.5457,-1.5152 h 5.5558 l 4.2932,-0.50508 -2.2728,3.283 -4.0406,-0.75761 -4.7982,1.0102 -4.2931,1.5152 z"
             style="opacity:0.6;fill:#808080;filter:url(#filter6354)" />
        </g>
      </g>
    </g>
  </g>
  <metadata
     id="metadata911">
    <rdf:RDF>
      <cc:Work>
        <dc:format>image/svg+xml</dc:format>
        <dc:type
           rdf:resource="http://purl.org/dc/dcmitype/StillImage" />
        <cc:license
           rdf:resource="http://creativecommons.org/publicdomain/zero/1.0/" />
        <dc:publisher>
          <cc:Agent
             rdf:about="http://openclipart.org/">
            <dc:title>Openclipart</dc:title>
          </cc:Agent>
        </dc:publisher>
      </cc:Work>
      <cc:License
         rdf:about="http://creativecommons.org/publicdomain/zero/1.0/">
        <cc:permits
           rdf:resource="http://creativecommons.org/ns#Reproduction" />
        <cc:permits
           rdf:resource="http://creativecommons.org/ns#Distribution" />
        <cc:permits
           rdf:resource="http://creativecommons.org/ns#DerivativeWorks" />
      </cc:License>
    </rdf:RDF>
  </metadata>
</svg>
