<svg width="84" height="154" viewBox="0 0 84 154" fill="none" xmlns="http://www.w3.org/2000/svg">
<g clip-path="url(#clip0_2_53)">
<path d="M83.3969 0.294922L0.338257 7.97506L11.469 153.36L74.262 146.755L83.3969 0.294922Z" fill="#3D6EA2"/>
<path d="M68.428 72.1044L67.8906 57.973C67.5836 49.5248 66.8159 43.3807 65.6645 39.4638C64.4363 35.547 62.6707 31.9373 60.2142 28.6348C57.8345 25.3324 54.6105 22.7979 50.6187 21.1083C46.627 19.4187 42.0979 18.6507 36.878 18.8811C29.6622 19.1883 23.7513 21.2619 19.2223 24.9484C14.6932 28.7116 11.8529 33.0125 10.6247 37.6974C9.39646 42.4591 8.93588 49.9088 9.16617 60.0466L34.0377 58.8946L33.8074 51.9057C33.5771 45.1471 33.6539 40.7695 34.1145 38.8494C34.5751 36.9294 35.7265 35.8542 37.6456 35.7774C39.1809 35.7006 40.1788 36.3918 40.7929 37.7742C41.3303 39.2334 41.7141 42.0751 41.8676 46.2992L42.5585 65.4995C42.7888 73.0261 42.712 77.7877 42.2515 79.7078C41.7909 81.6278 40.4859 82.703 38.4133 82.7798C35.8033 82.9334 34.3448 80.783 34.1145 76.4053L11.4691 77.4805L12.6206 109.276L35.8033 108.201L35.3427 95.7593C38.49 101.135 43.0959 103.593 49.0835 103.363C53.6893 103.132 57.681 101.443 61.0586 98.3705C64.4363 95.2217 66.5089 91.6888 67.43 87.7719C68.2745 83.7783 68.5815 78.5558 68.428 72.1044Z" fill="#F10985"/>
<path d="M41.2535 114.115L18.0708 115.267L18.9152 138.384L42.0979 137.309L41.2535 114.115Z" fill="#F10985"/>
<path d="M75.4135 62.2737L74.8761 48.1423C74.5691 39.6941 73.8014 33.55 72.65 29.6332C71.4218 25.7163 69.6562 22.1066 67.1997 18.8042C64.8201 15.5017 61.596 12.9672 57.6042 11.2776C53.6125 9.58798 49.0834 8.81997 43.8635 9.05037C36.6477 9.35758 30.7368 11.4312 26.2078 15.1177C21.6787 18.8042 18.7617 23.105 17.5334 27.7899C16.3052 32.5516 15.8446 40.0013 16.0749 50.1391L41.0232 49.0639L40.7929 42.075C40.5626 35.3165 40.6394 30.9388 41.1 29.0187C41.5606 27.0987 42.712 26.0235 44.6311 25.9467C46.1664 25.8699 47.1643 26.5611 47.7785 27.9435C48.3158 29.4027 48.6996 32.2444 48.8531 36.4685L49.544 55.6688C49.7743 63.1954 49.6976 67.957 49.237 69.8771C48.7764 71.7971 47.4714 72.8723 45.3988 72.9491C42.7888 73.1027 41.3303 70.9523 41.1 66.5746L18.4546 67.6498L19.6061 99.4456L42.7888 98.3704L42.3282 85.9286C45.4755 91.3047 50.0814 93.7623 56.069 93.5319C60.6748 93.3015 64.6665 91.6119 68.0442 88.5398C71.4218 85.391 73.4944 81.8581 74.4156 77.9412C75.3367 73.9476 75.6438 68.7251 75.4135 62.2737Z" fill="#5CDFC9"/>
<path d="M43.0191 104.284L19.8364 105.436L20.604 128.553L43.7867 127.478L43.0191 104.284Z" fill="#5CDFC9"/>
</g>
<defs>
<clipPath id="clip0_2_53">
<rect width="83.0586" height="153.065" fill="white" transform="translate(0.338257 0.294922)"/>
</clipPath>
</defs>
</svg>
