<svg width="84" height="154" viewBox="0 0 84 154" fill="none" xmlns="http://www.w3.org/2000/svg">
<g clip-path="url(#clip0_2_71)">
<path d="M83.3969 0.0132446L0.338257 7.69339L11.469 153.078L74.262 146.474L83.3969 0.0132446Z" fill="#F10985"/>
<path d="M68.428 71.8227L67.8906 57.6913C67.5836 49.2431 66.8159 43.099 65.6645 39.1821C64.4363 35.2653 62.6707 31.6556 60.2142 28.3531C57.8345 25.0507 54.6105 22.5162 50.6187 20.8266C46.627 19.137 42.0979 18.369 36.878 18.5994C29.6622 18.9066 23.7513 20.9802 19.2223 24.6667C14.6932 28.4299 11.8529 32.7308 10.6247 37.4157C9.39646 42.1774 8.93588 49.6271 9.16617 59.7649L34.0377 58.6129L33.8074 51.624C33.5771 44.8654 33.6539 40.4878 34.1145 38.5677C34.5751 36.6477 35.7265 35.5725 37.6456 35.4957C39.1809 35.4189 40.1788 36.1101 40.7929 37.4925C41.3303 38.9517 41.7141 41.7934 41.8676 46.0175L42.5585 65.2178C42.7888 72.7444 42.712 77.5061 42.2515 79.4261C41.7909 81.3461 40.4859 82.4213 38.4133 82.4981C35.8033 82.6517 34.3448 80.5013 34.1145 76.1236L11.4691 77.1988L12.6206 108.995L35.8033 107.919L35.3427 95.4776C38.49 100.854 43.0959 103.311 49.0835 103.081C53.6893 102.851 57.681 101.161 61.0586 98.0888C64.4363 94.94 66.5089 91.4071 67.43 87.4902C68.2745 83.4966 68.5815 78.2741 68.428 71.8227Z" fill="#1A1A1A"/>
<path d="M41.2535 113.833L18.0708 114.985L18.9152 138.102L42.0979 137.027L41.2535 113.833Z" fill="#1A1A1A"/>
<path d="M75.4135 61.9921L74.8761 47.8606C74.5691 39.4125 73.8014 33.2684 72.65 29.3515C71.4218 25.4346 69.6562 21.8249 67.1997 18.5225C64.8201 15.22 61.596 12.6856 57.6042 10.996C53.6125 9.30632 49.0834 8.53831 43.8635 8.76871C36.6477 9.07592 30.7368 11.1496 26.2078 14.836C21.6787 18.5225 18.7617 22.8234 17.5334 27.5083C16.3052 32.2699 15.8446 39.7197 16.0749 49.8575L41.0232 48.7822L40.7929 41.7933C40.5626 35.0348 40.6394 30.6571 41.1 28.7371C41.5606 26.817 42.712 25.7418 44.6311 25.665C46.1664 25.5882 47.1643 26.2794 47.7785 27.6619C48.3158 29.1211 48.6996 31.9627 48.8531 36.1868L49.544 55.3872C49.7743 62.9137 49.6976 67.6754 49.237 69.5954C48.7764 71.5155 47.4714 72.5907 45.3988 72.6675C42.7888 72.8211 41.3303 70.6706 41.1 66.293L18.4546 67.3682L19.6061 99.164L42.7888 98.0887L42.3282 85.6469C45.4755 91.023 50.0814 93.4807 56.069 93.2503C60.6748 93.0199 64.6665 91.3302 68.0442 88.2582C71.4218 85.1093 73.4944 81.5764 74.4156 77.6596C75.3367 73.6659 75.6438 68.4434 75.4135 61.9921Z" fill="#FFDD00"/>
<path d="M43.0191 104.002L19.8364 105.154L20.604 128.271L43.7867 127.196L43.0191 104.002Z" fill="#FFDD00"/>
</g>
<defs>
<clipPath id="clip0_2_71">
<rect width="83.0586" height="153.065" fill="white" transform="translate(0.338257 0.0132446)"/>
</clipPath>
</defs>
</svg>
